<svg width="128"
     height="128"
     viewBox="0 0 128 128"
     fill="none"
     xmlns="http://www.w3.org/2000/svg">
    <path d="M58.5938 0.111201C52.4532 0.791521 46.9485 2.097 41.9343 4.02764C36.0298 6.30763 28.018 10.9779 23.8031 14.6002C19.8244 18.0386 19.1159 18.6821 18.0804 19.7853C16.1728 21.8447 12.4848 26.5701 10.7589 29.1627C9.95949 30.3946 7.08903 35.304 7.08903 35.4695C7.08903 35.5062 6.50767 36.7565 5.79914 38.2643C4.36391 41.2798 3.92789 42.383 3.00135 45.2881C2.36548 47.3107 1.45711 51.1168 1.09376 53.2313C0.984757 53.8932 0.821249 54.831 0.730412 55.3458C-0.613982 62.48 -0.0871247 71.269 2.18381 79.5248C3.49187 84.3238 4.76359 87.5967 6.94369 91.8441C11.9761 101.608 17.2446 108.006 25.2747 114.129C33.5954 120.473 39.8087 123.47 49.9643 126.062C55.4145 127.441 56.7044 127.662 61.5733 127.901C67.6049 128.195 72.0923 127.846 76.943 126.687C83.1563 125.198 83.9738 124.959 88.4793 123.157C92.7305 121.466 95.7827 119.792 100.742 116.409C105.284 113.339 110.953 108.006 114.332 103.649C116.076 101.405 119.364 96.5695 120.218 94.9699C125.196 85.7764 127.085 79.2306 127.83 68.4006C128.393 60.3287 127.558 52.7349 125.305 45.233C123.27 38.5585 118.728 30.174 113.387 23.3524C111.298 20.6863 107.028 16.3102 104.212 13.9199C103.031 12.927 99.289 10.316 97.1997 9.06568C94.0386 7.15343 87.3348 3.91732 84.646 3.01635C83.4106 2.61184 81.0852 1.9499 79.4864 1.54539C76.7431 0.883456 75.5804 0.662812 72.5828 0.23991C70.8387 0.000878645 60.3924 -0.0910565 58.5938 0.111201ZM69.7305 8.36698C74.6357 8.88181 75.8348 9.12084 80.1223 10.3895C86.4991 12.2834 89.1515 13.5889 96.1278 18.204C99.5797 20.484 104.285 24.8969 107.592 28.9604C109.354 31.1117 109.408 31.2037 111.57 34.6604C114.949 40.0662 115.167 40.4891 117.529 46.8142C119.727 52.7165 120.363 56.7065 120.363 64.4474C120.363 70.9012 119.927 74.5603 118.601 79.0651C117.002 84.5444 115.058 88.9389 112.479 92.8554C108.191 99.3828 103.667 104.366 98.2716 108.521C94.6199 111.316 88.6428 114.809 85.7542 115.802C85.3 115.968 84.0828 116.391 83.0291 116.758C80.5038 117.641 75.4533 119.002 73.037 119.425C69.5125 120.05 61.4461 120.105 57.8853 119.517C52.5622 118.652 47.4935 117.31 43.5148 115.71C41.8616 115.048 37.5922 112.971 37.1562 112.621C37.0654 112.548 35.6846 111.684 34.1041 110.709C31.7241 109.257 29.9619 108.025 29.435 107.473C29.3805 107.418 28.8173 106.921 28.1633 106.37C25.8015 104.347 25.4927 104.053 23.2399 101.773C20.0788 98.5921 17.5717 95.2641 15.2281 91.2005C11.6854 85.0225 9.81415 80.058 8.5606 73.457C7.72489 69.0809 7.54322 62.1858 8.17908 58.1774C8.74227 54.5552 8.85127 54.022 9.5053 51.3926C10.6499 46.9246 11.7944 43.8723 14.029 39.3491C15.4824 36.4256 18.5527 31.5898 20.3513 29.4201C21.7865 27.7101 25.7289 23.7385 27.4366 22.3043C32.5598 18.0202 38.3734 14.4899 44.1507 12.1731C50.0006 9.81955 54.9422 8.69794 60.7739 8.38536C64.8434 8.16472 67.7684 8.16472 69.7305 8.36698Z"
          fill="currentColor" />
    <path d="M61.9511 15.0498C61.7149 15.1601 61.3697 15.3624 61.1881 15.5279C60.8974 15.8037 60.8792 16.9805 60.9519 35.4962C61.0064 48.312 60.9701 55.2806 60.8429 55.5013C60.752 55.7035 60.5885 55.8506 60.4795 55.8506C60.098 55.8506 58.9535 56.4758 58.3176 57.009C57.0822 58.0755 55.8105 60.2267 55.211 62.2861C54.8839 63.3525 54.8839 65.8164 55.211 66.9748C56.2283 70.6522 58.9716 73.2999 62.6233 74.1273C66.0569 74.8996 68.6367 74.1273 71.1257 71.5899C73.1604 69.5122 73.9235 67.7654 73.9416 65.1361C73.9416 64.419 74.0143 63.7571 74.087 63.6651C74.1596 63.5548 74.8682 62.9848 75.6675 62.378C76.9574 61.4035 83.3342 56.0897 85.8958 53.8648C86.4227 53.4052 87.0767 52.8719 87.3492 52.6513C87.6217 52.449 88.0033 52.1181 88.2031 51.9342C88.4029 51.7503 89.2568 51.0884 90.1107 50.4632C92.7995 48.4958 93.072 48.0729 93.0902 46.032C93.1083 43.8807 92.5088 42.612 91.0736 41.7478C89.384 40.7549 88.4756 41.141 84.933 44.4507C83.6794 45.6274 81.4811 47.5397 79.5735 49.1394C76.5032 51.6952 75.9582 52.1365 74.6683 53.1845C72.7971 54.7106 72.5609 54.9129 71.5254 55.8139L70.6351 56.6045L70.2355 56.2368C70.0175 56.0345 69.5814 55.7587 69.2544 55.6484C68.8547 55.5197 68.6367 55.2806 68.5459 54.9681C68.4914 54.6923 68.4914 45.8297 68.5459 35.2388L68.6549 16.0059L68.2552 15.6382C68.0372 15.4543 67.6193 15.1785 67.3468 15.0682C66.7291 14.7924 62.6051 14.7924 61.9511 15.0498ZM66.0206 62.1022C66.3113 62.2677 66.8018 62.709 67.1107 63.0951C67.6012 63.7019 67.6738 63.9409 67.6738 64.8419C67.6557 65.7061 67.5648 66.0003 67.1288 66.5887C65.2576 69.0709 61.3334 67.3977 61.6422 64.2351C61.7149 63.4077 61.8239 63.2238 62.5688 62.5251C63.677 61.5138 64.7489 61.3851 66.0206 62.1022Z"
          fill="currentColor" />
    <path d="M40.023 23.2872C38.9693 23.7836 37.7157 25.0156 37.2615 25.9717C36.7528 27.0565 36.771 28.4172 37.2615 29.4285C38.1881 31.2856 39.8413 33.2346 40.9677 33.823C41.9124 34.3194 43.7836 34.3562 44.7465 33.8781C45.7639 33.4001 46.9266 32.2785 47.4898 31.212C47.9622 30.3478 47.9803 30.1823 47.7987 29.5572C47.508 28.5643 45.6912 25.4936 44.9464 24.703C43.4566 23.1401 41.5127 22.5885 40.023 23.2872Z"
          fill="currentColor" />
    <path d="M85.2963 23.5628C84.1154 24.096 82.8255 25.5486 82.0261 27.2586C81.0088 29.3731 81.1904 30.936 82.6075 32.5173C83.9882 34.0618 85.8595 34.4663 87.6217 33.6021C89.7837 32.5541 91.7457 29.8328 91.7457 27.9205C91.7457 25.4934 89.4203 23.1031 87.0767 23.1399C86.568 23.1399 85.805 23.3238 85.2963 23.5628Z"
          fill="currentColor" />
    <path d="M25.0166 38.4566C24.0174 38.8243 22.7638 39.9459 22.1643 41.0124C21.1469 42.7959 21.5284 44.5611 23.3089 46.5836C25.4526 48.9923 28.5411 49.3601 30.376 47.4294C32.7923 44.9288 32.4289 41.4169 29.5403 39.2288C28.2141 38.2175 26.4882 37.9234 25.0166 38.4566Z"
          fill="currentColor" />
    <path d="M101.048 38.6957C100.03 39.0634 98.6131 40.4976 97.9227 41.8766C96.9417 43.844 97.2868 45.646 98.9764 47.4295C101.157 49.7463 104.935 48.6982 106.934 45.2598C107.37 44.5244 107.461 44.1382 107.461 43.1637C107.461 42.1157 107.388 41.8582 106.897 41.1412C105.208 38.6773 103.3 37.8866 101.048 38.6957Z"
          fill="currentColor" />
    <path d="M13.2986 61.2195C12.6082 61.9734 12.4992 62.5802 12.6445 65.044C12.7717 67.324 12.7717 67.3424 13.3531 67.9124L13.9526 68.464L21.0742 68.4824H28.1959L28.8318 67.9308C29.8491 67.0298 30.2488 66.0737 30.2488 64.4924C30.2488 62.856 29.8491 61.8631 28.9044 61.2379C28.2867 60.815 28.2686 60.815 20.9834 60.815H13.6801L13.2986 61.2195Z"
          fill="currentColor" />
    <path d="M100.793 61.0727C99.3579 61.6979 98.5222 63.3895 98.7221 65.173C98.9038 66.7727 99.4669 67.8208 100.412 68.3356C100.702 68.4827 102.592 68.5011 107.66 68.4091L114.51 68.2988L115.109 67.7472C115.999 66.9566 116.181 66.1659 115.963 63.8492C115.8 62.084 115.727 61.8634 115.273 61.3669L114.746 60.8153L108.024 60.8337C103.173 60.8337 101.138 60.9072 100.793 61.0727Z"
          fill="currentColor" />
    <path d="M100.194 81.4085C99.2671 81.905 98.3951 82.7692 97.7955 83.7989C97.3958 84.4792 97.305 84.8653 97.305 85.9134C97.2868 86.9982 97.3595 87.3292 97.7774 88.0463C100.085 92.0179 105.044 92.165 106.843 88.3037C107.842 86.1892 107.515 84.7918 105.571 82.7876C104.027 81.2063 101.72 80.6179 100.194 81.4085Z"
          fill="currentColor" />
    <path d="M25.9795 81.3352C24.1627 82.0339 23.1454 82.8429 22.2188 84.2955C20.7473 86.6306 21.9463 89.591 24.8531 90.7677C25.7978 91.1722 27.5964 91.0803 28.5048 90.6022C30.3942 89.6461 31.9748 87.4764 31.9748 85.8952C31.9748 84.5529 30.921 82.6407 29.7402 81.85C29.1043 81.4271 28.7409 81.3352 27.6146 81.28C26.8697 81.2616 26.1248 81.28 25.9795 81.3352Z"
          fill="currentColor" />
    <path d="M41.3674 95.456C40.241 95.8789 39.1873 96.9269 37.7884 99.023C37.0253 100.163 36.88 100.512 36.88 101.229C36.88 102.848 38.3879 104.944 40.0956 105.716C42.3302 106.709 45.0917 105.054 46.7268 101.726C47.5807 99.9976 47.6533 99.593 47.2536 98.6185C46.8358 97.644 45.4551 96.0627 44.6194 95.6398C43.82 95.2353 42.2031 95.1434 41.3674 95.456Z"
          fill="currentColor" />
    <path d="M85.8232 95.3825C84.824 95.5296 83.5704 96.3019 82.6621 97.35C81.5538 98.637 81.3177 99.299 81.5902 100.439C82.008 102.204 83.4251 104.263 84.9875 105.367C85.7869 105.918 85.9504 105.955 87.3129 105.955C88.621 105.955 88.8753 105.9 89.6747 105.403C90.6739 104.778 91.8366 103.234 92.1273 102.149C92.3817 101.138 92.1091 100.31 90.8011 98.3245C89.1478 95.8238 87.9125 95.0883 85.8232 95.3825Z"
          fill="currentColor" />
    <path d="M63.7678 97.7544C61.6786 97.8831 61.1517 98.1589 60.9882 99.1886C60.8247 100.108 60.8247 110.809 60.9701 112.078L61.0972 113.034L62.4053 113.696C63.4772 114.229 63.9314 114.358 64.8216 114.358C65.9843 114.358 67.1288 113.935 67.9827 113.181L68.4732 112.758L68.5096 105.624C68.5459 97.7912 68.6004 98.1957 67.4195 97.7912C66.7836 97.5889 66.6201 97.5706 63.7678 97.7544Z"
          fill="currentColor" />
</svg>